<svg width="114" height="114" viewBox="0 0 114 114" fill="none" xmlns="http://www.w3.org/2000/svg">
<circle cx="57" cy="57" r="57" fill="#3DC173" fill-opacity="0.61"/>
<path d="M28.8232 63.2843L29.5875 61.9937C29.3561 61.8567 29.0921 61.7843 28.8232 61.7843V63.2843ZM40.4004 70.1406L41.7977 69.595C41.6758 69.2829 41.453 69.0206 41.1648 68.8499L40.4004 70.1406ZM36.6016 75.3291L35.8162 76.607C36.0381 76.7434 36.2917 76.8196 36.5521 76.8283L36.6016 75.3291ZM27.4379 67.9361C26.7321 67.5023 25.8083 67.7228 25.3745 68.4286C24.9407 69.1344 25.1612 70.0582 25.867 70.492L27.4379 67.9361ZM53.4248 75.885L54.6351 74.9989C54.3629 74.6271 53.9349 74.401 53.4743 74.3858L53.4248 75.885ZM53.4248 82V83.5C53.8689 83.5 54.2902 83.3032 54.5752 82.9626L53.4248 82ZM29.3659 82L28.5617 83.2662C28.8021 83.4189 29.081 83.5 29.3659 83.5V82ZM20.3211 76.2556L21.1253 74.9894C20.8849 74.8367 20.606 74.7556 20.3211 74.7556V76.2556ZM38.7724 74.9585L39.0248 76.4371C39.175 76.4114 39.3205 76.363 39.4562 76.2935L38.7724 74.9585ZM40.2195 74.0319L41.1334 75.2214C41.3172 75.0802 41.4658 74.8983 41.5675 74.6899L40.2195 74.0319ZM39.4959 74.5879L40.1797 75.9229C40.2607 75.8815 40.3377 75.8327 40.4098 75.7773L39.4959 74.5879ZM40.7622 72.1789L42.2427 72.4198C42.2557 72.3402 42.2622 72.2596 42.2622 72.1789H40.7622ZM40.5813 73.2907L41.9293 73.9487C41.9936 73.8169 42.0383 73.6764 42.0618 73.5316L40.5813 73.2907ZM40.7622 71.0671H42.2622C42.2622 70.8804 42.2274 70.6954 42.1594 70.5215L40.7622 71.0671ZM54.5102 77.3674L55.9074 76.8218C55.8601 76.7007 55.7973 76.5862 55.7204 76.4813L54.5102 77.3674ZM54.5102 80.7029L55.6606 81.6655C55.7385 81.5723 55.8049 81.47 55.8582 81.3608L54.5102 80.7029ZM54.872 78.2939L56.3442 78.0065C56.3269 77.9184 56.3019 77.832 56.2692 77.7483L54.872 78.2939ZM55.0528 79.2204L56.5101 79.5761C56.5615 79.3653 56.5666 79.1459 56.5251 78.933L55.0528 79.2204ZM54.872 79.9617L56.2199 80.6196C56.2671 80.5231 56.3037 80.4217 56.3292 80.3173L54.872 79.9617ZM84.1768 63.2843V61.7843C83.9079 61.7843 83.6439 61.8567 83.4125 61.9937L84.1768 63.2843ZM72.5996 70.1406L71.8352 68.8499C71.547 69.0206 71.3242 69.2829 71.2023 69.595L72.5996 70.1406ZM76.3984 75.3291L76.4479 76.8283C76.7083 76.8196 76.9619 76.7434 77.1838 76.607L76.3984 75.3291ZM87.133 70.492C87.8388 70.0582 88.0593 69.1344 87.6255 68.4286C87.1917 67.7228 86.2679 67.5023 85.5621 67.9361L87.133 70.492ZM59.5752 75.885L59.5257 74.3858C59.0651 74.401 58.6371 74.6271 58.3649 74.9989L59.5752 75.885ZM59.5752 82L58.4248 82.9626C58.7098 83.3032 59.1311 83.5 59.5752 83.5V82ZM83.6341 82V83.5C83.919 83.5 84.1979 83.4189 84.4383 83.2662L83.6341 82ZM92.6789 76.2556V74.7556C92.394 74.7556 92.1151 74.8367 91.8747 74.9894L92.6789 76.2556ZM74.2276 74.9585L73.5438 76.2935C73.6795 76.363 73.825 76.4114 73.9752 76.4371L74.2276 74.9585ZM72.7805 74.0319L71.4325 74.6899C71.5342 74.8983 71.6828 75.0802 71.8666 75.2214L72.7805 74.0319ZM73.5041 74.5879L72.5902 75.7773C72.6623 75.8327 72.7393 75.8815 72.8203 75.9229L73.5041 74.5879ZM72.2378 72.1789H70.7378C70.7378 72.2596 70.7443 72.3402 70.7573 72.4198L72.2378 72.1789ZM72.4187 73.2907L70.9382 73.5316C70.9617 73.6764 71.0064 73.8169 71.0707 73.9487L72.4187 73.2907ZM72.2378 71.0671L70.8406 70.5215C70.7727 70.6954 70.7378 70.8804 70.7378 71.0671H72.2378ZM58.4898 77.3674L57.2796 76.4813C57.2027 76.5862 57.1399 76.7007 57.0926 76.8218L58.4898 77.3674ZM58.4898 80.7029L57.1418 81.3608C57.1951 81.47 57.2615 81.5723 57.3394 81.6655L58.4898 80.7029ZM58.1281 78.2939L56.7308 77.7483C56.6981 77.832 56.6731 77.9184 56.6558 78.0065L58.1281 78.2939ZM57.9472 79.2204L56.475 78.933C56.4334 79.1459 56.4385 79.3653 56.4899 79.5761L57.9472 79.2204ZM58.1281 79.9617L56.6708 80.3173C56.6963 80.4217 56.7329 80.523 56.7801 80.6196L58.1281 79.9617ZM61.377 58.1213C60.5486 58.1213 59.877 58.7929 59.877 59.6213C59.877 60.4497 60.5486 61.1213 61.377 61.1213V58.1213ZM76.6954 61.1213C77.5238 61.1213 78.1954 60.4497 78.1954 59.6213C78.1954 58.7929 77.5238 58.1213 76.6954 58.1213V61.1213ZM61.377 65.3372C60.5486 65.3372 59.877 66.0088 59.877 66.8372C59.877 67.6656 60.5486 68.3372 61.377 68.3372V65.3372ZM76.6954 68.3372C77.5238 68.3372 78.1954 67.6656 78.1954 66.8372C78.1954 66.0088 77.5238 65.3372 76.6954 65.3372V68.3372ZM61.377 50.9054C60.5486 50.9054 59.877 51.577 59.877 52.4054C59.877 53.2338 60.5486 53.9054 61.377 53.9054V50.9054ZM76.6954 53.9054C77.5238 53.9054 78.1954 53.2338 78.1954 52.4054C78.1954 51.577 77.5238 50.9054 76.6954 50.9054V53.9054ZM61.377 43.8041C60.5486 43.8041 59.877 44.4756 59.877 45.3041C59.877 46.1325 60.5486 46.8041 61.377 46.8041V43.8041ZM76.6954 46.8041C77.5238 46.8041 78.1954 46.1325 78.1954 45.3041C78.1954 44.4756 77.5238 43.8041 76.6954 43.8041V46.8041ZM18.1504 64.7843H28.8232V61.7843H18.1504V64.7843ZM28.0588 64.575L39.6361 71.4312L41.1648 68.8499L29.5875 61.9937L28.0588 64.575ZM37.3871 74.0512L27.4379 67.9361L25.867 70.492L35.8162 76.607L37.3871 74.0512ZM36.5521 76.8283L53.3753 77.3842L53.4743 74.3858L36.6512 73.8299L36.5521 76.8283ZM53.4248 80.5H29.3659V83.5H53.4248V80.5ZM30.17 80.7338L21.1253 74.9894L19.517 77.5218L28.5617 83.2662L30.17 80.7338ZM20.3211 74.7556H18.1504V77.7556H20.3211V74.7556ZM38.5199 73.4799L36.3492 73.8505L36.8541 76.8077L39.0248 76.4371L38.5199 73.4799ZM39.3057 72.8425L38.5821 73.3984L40.4098 75.7773L41.1334 75.2214L39.3057 72.8425ZM38.8121 73.2528L38.0885 73.6234L39.4562 76.2935L40.1797 75.9229L38.8121 73.2528ZM39.2817 71.938L39.1008 73.0499L42.0618 73.5316L42.2427 72.4198L39.2817 71.938ZM39.2333 72.6328L38.8715 73.374L41.5675 74.6899L41.9293 73.9487L39.2333 72.6328ZM39.0032 70.6862L39.3649 71.6127L42.1594 70.5215L41.7977 69.595L39.0032 70.6862ZM39.2622 71.0671V72.1789H42.2622V71.0671H39.2622ZM52.2145 76.7711L53.2999 78.2535L55.7204 76.4813L54.6351 74.9989L52.2145 76.7711ZM53.3598 79.7403L52.2744 81.0374L54.5752 82.9626L55.6606 81.6655L53.3598 79.7403ZM53.1129 77.913L53.4747 78.8395L56.2692 77.7483L55.9074 76.8218L53.1129 77.913ZM53.3997 78.5814L53.5806 79.5079L56.5251 78.933L56.3442 78.0065L53.3997 78.5814ZM53.5956 78.8648L53.4147 79.606L56.3292 80.3173L56.5101 79.5761L53.5956 78.8648ZM53.524 79.3037L53.1622 80.0449L55.8582 81.3608L56.2199 80.6196L53.524 79.3037ZM13.0854 60.3371H16.3415V57.3371H13.0854V60.3371ZM15.9268 59.9489V79.5911H18.9268V59.9489H15.9268ZM16.3415 79.2029H13.0854V82.2029H16.3415V79.2029ZM13.5 79.5911V59.9489H10.5V79.5911H13.5ZM13.0854 79.2029C13.3482 79.2029 13.5 79.4109 13.5 79.5911H10.5C10.5 80.9993 11.6237 82.2029 13.0854 82.2029V79.2029ZM15.9268 79.5911C15.9268 79.4109 16.0786 79.2029 16.3415 79.2029V82.2029C17.8032 82.2029 18.9268 80.9993 18.9268 79.5911H15.9268ZM16.3415 60.3371C16.0786 60.3371 15.9268 60.129 15.9268 59.9489H18.9268C18.9268 58.5407 17.8032 57.3371 16.3415 57.3371V60.3371ZM13.0854 57.3371C11.6237 57.3371 10.5 58.5407 10.5 59.9489H13.5C13.5 60.129 13.3482 60.3371 13.0854 60.3371V57.3371ZM94.8496 61.7843H84.1768V64.7843H94.8496V61.7843ZM83.4125 61.9937L71.8352 68.8499L73.3639 71.4312L84.9412 64.575L83.4125 61.9937ZM77.1838 76.607L87.133 70.492L85.5621 67.9361L75.6129 74.0512L77.1838 76.607ZM76.3488 73.8299L59.5257 74.3858L59.6247 77.3842L76.4479 76.8283L76.3488 73.8299ZM59.5752 83.5H83.6341V80.5H59.5752V83.5ZM84.4383 83.2662L93.483 77.5218L91.8747 74.9894L82.83 80.7338L84.4383 83.2662ZM92.6789 77.7556H94.8496V74.7556H92.6789V77.7556ZM73.9752 76.4371L76.1459 76.8077L76.6508 73.8505L74.4801 73.4799L73.9752 76.4371ZM71.8666 75.2214L72.5902 75.7773L74.4179 73.3984L73.6943 72.8425L71.8666 75.2214ZM72.8203 75.9229L73.5438 76.2935L74.9115 73.6234L74.1879 73.2528L72.8203 75.9229ZM70.7573 72.4198L70.9382 73.5316L73.8992 73.0499L73.7183 71.938L70.7573 72.4198ZM71.0707 73.9487L71.4325 74.6899L74.1285 73.374L73.7667 72.6328L71.0707 73.9487ZM71.2023 69.595L70.8406 70.5215L73.6351 71.6127L73.9968 70.6862L71.2023 69.595ZM70.7378 71.0671V72.1789H73.7378V71.0671H70.7378ZM58.3649 74.9989L57.2796 76.4813L59.7001 78.2535L60.7855 76.7711L58.3649 74.9989ZM57.3394 81.6655L58.4248 82.9626L60.7256 81.0374L59.6402 79.7403L57.3394 81.6655ZM57.0926 76.8218L56.7308 77.7483L59.5253 78.8395L59.8871 77.913L57.0926 76.8218ZM56.6558 78.0065L56.475 78.933L59.4194 79.5079L59.6003 78.5814L56.6558 78.0065ZM56.4899 79.5761L56.6708 80.3173L59.5853 79.606L59.4044 78.8648L56.4899 79.5761ZM56.7801 80.6196L57.1418 81.3608L59.8378 80.0449L59.476 79.3037L56.7801 80.6196ZM99.9146 57.3371H96.6585V60.3371H99.9146V57.3371ZM94.0732 59.9489V79.5911H97.0732V59.9489H94.0732ZM96.6585 82.2029H99.9146V79.2029H96.6585V82.2029ZM102.5 79.5911V59.9489H99.5V79.5911H102.5ZM99.9146 82.2029C101.376 82.2029 102.5 80.9993 102.5 79.5911H99.5C99.5 79.4109 99.6518 79.2029 99.9146 79.2029V82.2029ZM94.0732 79.5911C94.0732 80.9993 95.1968 82.2029 96.6585 82.2029V79.2029C96.9214 79.2029 97.0732 79.4109 97.0732 79.5911H94.0732ZM96.6585 57.3371C95.1968 57.3371 94.0732 58.5407 94.0732 59.9489H97.0732C97.0732 60.129 96.9214 60.3371 96.6585 60.3371V57.3371ZM99.9146 60.3371C99.6518 60.3371 99.5 60.129 99.5 59.9489H102.5C102.5 58.5407 101.376 57.3371 99.9146 57.3371V60.3371ZM38.4106 25.5H74.9512V22.5H38.4106V25.5ZM74.9512 25.5C79.6836 25.5 83.5813 29.4401 83.5813 34.377H86.5813C86.5813 27.8518 81.4082 22.5 74.9512 22.5V25.5ZM38.4106 22.5C31.9536 22.5 26.7805 27.8518 26.7805 34.377H29.7805C29.7805 29.4401 33.6782 25.5 38.4106 25.5V22.5ZM37.16 45.6587H52.9448V42.6587H37.16V45.6587ZM53.6155 46.3823V65.3008H56.6155V46.3823H53.6155ZM52.9448 66.0244H37.16V69.0244H52.9448V66.0244ZM36.4893 65.3008V46.3823H33.4893V65.3008H36.4893ZM37.16 66.0244C36.8234 66.0244 36.4893 65.7347 36.4893 65.3008H33.4893C33.4893 67.3231 35.0989 69.0244 37.16 69.0244V66.0244ZM53.6155 65.3008C53.6155 65.7347 53.2814 66.0244 52.9448 66.0244V69.0244C55.0059 69.0244 56.6155 67.3231 56.6155 65.3008H53.6155ZM52.9448 45.6587C53.2814 45.6587 53.6155 45.9484 53.6155 46.3823H56.6155C56.6155 44.3601 55.0059 42.6587 52.9448 42.6587V45.6587ZM37.16 42.6587C35.0988 42.6587 33.4893 44.3601 33.4893 46.3823H36.4893C36.4893 45.9484 36.8234 45.6587 37.16 45.6587V42.6587ZM36.62 30.5287C36.62 31.4425 35.9061 32.1212 35.1011 32.1212V35.1212C37.6306 35.1212 39.62 33.0308 39.62 30.5287H36.62ZM35.1011 32.1212C34.296 32.1212 33.5821 31.4425 33.5821 30.5287H30.5821C30.5821 33.0308 32.5715 35.1212 35.1011 35.1212V32.1212ZM33.5821 30.5287C33.5821 29.6149 34.296 28.9361 35.1011 28.9361V25.9361C32.5715 25.9361 30.5821 28.0265 30.5821 30.5287H33.5821ZM35.1011 28.9361C35.9061 28.9361 36.62 29.6149 36.62 30.5287H39.62C39.62 28.0265 37.6306 25.9361 35.1011 25.9361V28.9361ZM43.5524 30.5287C43.5524 31.4425 42.8385 32.1212 42.0334 32.1212V35.1212C44.563 35.1212 46.5524 33.0308 46.5524 30.5287H43.5524ZM42.0334 32.1212C41.2284 32.1212 40.5145 31.4425 40.5145 30.5287H37.5145C37.5145 33.0308 39.5039 35.1212 42.0334 35.1212V32.1212ZM40.5145 30.5287C40.5145 29.6149 41.2284 28.9361 42.0334 28.9361V25.9361C39.5039 25.9361 37.5145 28.0265 37.5145 30.5287H40.5145ZM42.0334 28.9361C42.8385 28.9361 43.5524 29.6149 43.5524 30.5287H46.5524C46.5524 28.0265 44.563 25.9361 42.0334 25.9361V28.9361ZM50.4848 30.5287C50.4848 31.4425 49.7709 32.1212 48.9658 32.1212V35.1212C51.4954 35.1212 53.4848 33.0308 53.4848 30.5287H50.4848ZM48.9658 32.1212C48.1608 32.1212 47.4469 31.4425 47.4469 30.5287H44.4469C44.4469 33.0308 46.4362 35.1212 48.9658 35.1212V32.1212ZM47.4469 30.5287C47.4469 29.6149 48.1608 28.9361 48.9658 28.9361V25.9361C46.4362 25.9361 44.4469 28.0265 44.4469 30.5287H47.4469ZM48.9658 28.9361C49.7709 28.9361 50.4848 29.6149 50.4848 30.5287H53.4848C53.4848 28.0265 51.4954 25.9361 48.9658 25.9361V28.9361ZM28.2779 36.7145L84.1842 36.9464L84.1967 33.9464L28.2904 33.7145L28.2779 36.7145ZM61.377 61.1213H76.6954V58.1213H61.377V61.1213ZM61.377 68.3372H76.6954V65.3372H61.377V68.3372ZM61.377 53.9054H76.6954V50.9054H61.377V53.9054ZM61.377 46.8041H76.6954V43.8041H61.377V46.8041ZM29.7805 64.0256V34.377H26.7805V64.0256H29.7805ZM83.5813 34.377V64.0256H86.5813V34.377H83.5813ZM63.5549 74.2712H50.5305V77.2712H63.5549V74.2712Z" fill="#3DC173"/>
</svg>
