<svg width="46" height="35" viewBox="0 0 46 35" fill="none" xmlns="http://www.w3.org/2000/svg">
<path d="M0.41 34.82V30.556C1.28467 30.556 2.009 30.5013 2.583 30.392C3.157 30.2827 3.59433 30.0913 3.895 29.818C4.223 29.5173 4.45533 29.0937 4.592 28.547C4.72867 27.973 4.797 27.2487 4.797 26.374V0.789997H10.824V26.62C10.824 28.4787 10.6053 30.023 10.168 31.253C9.73067 32.4557 8.96533 33.3577 7.872 33.959C6.806 34.533 5.289 34.82 3.321 34.82H0.41ZM29.6007 34.451C27.1681 34.451 25.2547 33.9727 23.8607 33.016C22.4941 32.0593 21.5374 30.761 20.9907 29.121C20.4441 27.4537 20.1707 25.5403 20.1707 23.381V11.532C20.1707 9.26333 20.4441 7.29533 20.9907 5.628C21.5374 3.96067 22.4941 2.676 23.8607 1.774C25.2547 0.871998 27.1681 0.420997 29.6007 0.420997C31.8967 0.420997 33.6871 0.817331 34.9717 1.61C36.2837 2.37533 37.2131 3.48233 37.7597 4.931C38.3064 6.37967 38.5797 8.06067 38.5797 9.974V12.762H32.7577V9.892C32.7577 8.96267 32.7031 8.11533 32.5937 7.35C32.5117 6.58467 32.2521 5.98333 31.8147 5.546C31.4047 5.08133 30.6804 4.849 29.6417 4.849C28.6031 4.849 27.8377 5.095 27.3457 5.587C26.8811 6.05166 26.5804 6.694 26.4437 7.514C26.3071 8.30667 26.2387 9.20866 26.2387 10.22V24.652C26.2387 25.8547 26.3344 26.8523 26.5257 27.645C26.7171 28.4103 27.0587 28.998 27.5507 29.408C28.0701 29.7907 28.7671 29.982 29.6417 29.982C30.6531 29.982 31.3637 29.7497 31.7737 29.285C32.2111 28.793 32.4844 28.1507 32.5937 27.358C32.7031 26.5653 32.7577 25.677 32.7577 24.693V21.7H38.5797V24.365C38.5797 26.333 38.3201 28.0823 37.8007 29.613C37.2814 31.1163 36.3657 32.3053 35.0537 33.18C33.7691 34.0273 31.9514 34.451 29.6007 34.451Z" fill="black"/>
<path d="M13.25 34V28.383H18.662V34H13.25ZM40.1803 34V28.383H45.5923V34H40.1803Z" fill="#893CD6"/>
</svg>
