<svg width="555" height="985" viewBox="0 0 555 985" fill="none" xmlns="http://www.w3.org/2000/svg">
<path d="M113.815 56.581C113.737 82.6604 92.5654 103.739 66.5267 103.662C40.4879 103.584 19.4423 82.3789 19.5201 56.2995L19.6794 2.93943" stroke="#3DC173" stroke-width="2" stroke-linecap="round" stroke-linejoin="round"/>
<path d="M444.446 1112.99C503.136 1113.16 550.855 1065.99 551.03 1007.61C551.204 949.239 503.767 901.781 445.077 901.606L347.822 901.316" stroke="#FFA93F" stroke-width="2" stroke-linecap="round" stroke-linejoin="round"/>
<path d="M451.149 1040.71C470.67 1040.77 486.54 1025.51 486.596 1006.63C486.652 987.755 470.874 972.405 451.353 972.347L413.619 972.234" stroke="#3DC173" stroke-width="2" stroke-linecap="round" stroke-linejoin="round"/>
<path d="M247.943 464.892L247.792 515.408C247.609 576.939 197.636 626.671 136.175 626.487L91.8508 626.355C54.8695 626.245 24.8002 656.169 24.6897 693.192M24.4876 760.897L165.49 761.318C201.03 761.424 229.756 790.169 229.651 825.522C229.545 860.874 200.648 889.447 165.108 889.341L106.911 889.167L24.4876 760.897ZM264.022 1112.45L272.427 1112.47C297.226 1112.55 317.391 1092.48 317.465 1067.66C317.539 1042.83 297.495 1022.64 272.696 1022.56L172.443 1022.26C135.801 1022.15 106.185 992.327 106.295 955.64L264.022 1112.45Z" stroke="#FF6E30" stroke-width="2" stroke-linecap="round" stroke-linejoin="round"/>
<path d="M92.5306 342.626C75.1713 342.575 61.1409 328.46 61.1927 311.101C61.2446 293.742 75.359 279.711 92.7182 279.763C110.077 279.815 124.108 293.929 124.056 311.289C124.004 328.648 109.89 342.678 92.5306 342.626Z" stroke="#893CD6" stroke-width="2" stroke-linecap="round" stroke-linejoin="round"/>
<path d="M4.16862 986.727C-21.0023 986.652 -41.3469 966.362 -41.2724 941.408C-41.1979 916.454 -20.7325 896.286 4.43841 896.361C29.6093 896.436 49.9539 916.726 49.8794 941.68C49.8049 966.634 29.3395 986.802 4.16862 986.727Z" stroke="#FF5AC8" stroke-width="2" stroke-linecap="round" stroke-linejoin="round"/>
<path d="M410.261 254.778C382.92 254.696 360.822 232.466 360.903 205.125C360.985 177.785 383.215 155.687 410.556 155.768C437.897 155.85 459.995 178.08 459.913 205.421C459.832 232.762 437.601 254.86 410.261 254.778Z" stroke="#3DC173" stroke-width="2" stroke-linecap="round" stroke-linejoin="round"/>
<path d="M409.693 312.928C348.718 312.746 299.433 263.872 299.613 203.764C299.792 143.657 349.368 95.078 410.343 95.26C471.318 95.442 520.603 144.316 520.423 204.423" stroke="#FFA93F" stroke-width="2" stroke-linecap="round" stroke-linejoin="round"/>
<path d="M92.2788 689.955L174.629 690.201C200.979 690.279 225.336 699.469 245.156 715.004M174.129 955.803C240.888 956.003 295.186 896.887 295.404 823.766C295.48 798.375 289.025 774.634 277.771 754.45L174.129 955.803Z" stroke="#893CD6" stroke-width="2" stroke-linecap="round" stroke-linejoin="round"/>
<path d="M296.491 328.306C321.446 328.38 341.614 348.669 341.539 373.624C341.465 398.578 321.176 418.746 296.222 418.672C271.267 418.597 251.099 398.308 251.173 373.354L251.308 328.171" stroke="#3DC173" stroke-width="2" stroke-linecap="round" stroke-linejoin="round"/>
<path d="M283.529 63.8409C283.429 97.0402 256.611 123.874 223.629 123.776C190.646 123.677 163.989 96.6836 164.088 63.4843C164.187 30.2848 191.005 3.45102 223.988 3.54949L283.708 3.72778" stroke="#FF5AC8" stroke-width="2" stroke-linecap="round" stroke-linejoin="round"/>
<path d="M497.381 684.55C526.241 684.636 549.706 661.56 549.791 633.007C549.876 604.454 526.549 581.238 497.689 581.152C468.829 581.066 445.364 604.142 445.279 632.695L444.807 790.805" stroke="#3DC173" stroke-width="2" stroke-linecap="round" stroke-linejoin="round"/>
<path d="M505.152 450.5C530.106 450.575 550.276 470.564 550.202 495.148C550.129 519.732 529.84 539.6 504.886 539.525C479.932 539.451 459.762 519.462 459.835 494.878L460.378 313.079" stroke="#FF6E30" stroke-width="2" stroke-linecap="round" stroke-linejoin="round"/>
<path d="M13.4882 311.745C13.6217 267.044 49.3875 230.913 93.3726 231.045C137.358 231.176 172.907 267.52 172.774 312.22C172.64 356.921 136.874 393.052 92.8893 392.92L-115.858 392.297" stroke="#FFA93F" stroke-width="2" stroke-linecap="round" stroke-linejoin="round"/>
<path fill-rule="evenodd" clip-rule="evenodd" d="M344.138 687.564C369.961 687.641 390.956 666.805 391.033 641.027L391.43 508.069C391.507 482.29 370.636 461.329 344.814 461.252C318.992 461.175 297.996 482.011 297.919 507.789L297.522 640.747C297.446 666.526 318.316 687.487 344.138 687.564Z" stroke="#FFA93F" stroke-width="2" stroke-linecap="round" stroke-linejoin="round"/>
<path d="M496.983 751.671L500.764 751.682C527.645 751.763 549.371 773.64 549.29 800.547C549.21 827.455 527.354 849.202 500.473 849.122L388.007 848.786C361.126 848.706 339.4 826.829 339.481 799.921C339.561 773.014 361.417 751.266 388.298 751.347L392.079 751.358" stroke="#FFA93F" stroke-width="2" stroke-linecap="round" stroke-linejoin="round"/>
<path d="M162.586 829.254L-0.705223 828.766C-62.8516 828.581 -113.382 879.092 -113.569 941.586C-113.755 1004.08 -63.5273 1054.89 -1.38087 1055.08L47.7428 1055.22" stroke="#3DC173" stroke-width="2" stroke-linecap="round" stroke-linejoin="round"/>
<path d="M93.4742 553.226L132.125 553.341C158.083 553.419 179.189 532.373 179.266 506.334C179.344 480.296 158.364 459.124 132.406 459.046L55.1054 458.816C29.1474 458.738 8.04143 479.784 7.96369 505.823L7.95119 510.011C7.88035 533.737 26.9966 553.028 50.6486 553.098" stroke="#399CFF" stroke-width="2" stroke-linecap="round" stroke-linejoin="round"/>
<path d="M24.7049 161.688L130.538 162.004C197.51 162.204 251.639 216.898 251.438 284.166" stroke="#3DC173" stroke-width="2" stroke-linecap="round" stroke-linejoin="round"/>
<path d="M380.981 1112.79L381.195 1041.2C381.318 999.97 349.223 965.339 306.012 956.197" stroke="#3DC173" stroke-width="2" stroke-linecap="round" stroke-linejoin="round"/>
<path d="M519.865 259.822C519.843 267.14 519.568 359.262 519.434 404.407" stroke="#893CD6" stroke-width="2" stroke-linecap="round" stroke-linejoin="round"/>
</svg>
