<svg width="111" height="111" viewBox="0 0 111 111" fill="none" xmlns="http://www.w3.org/2000/svg">
<circle cx="55.5" cy="55.5" r="55.5" fill="#399CFF" fill-opacity="0.26"/>
<path d="M70.5447 55.9455C70.4967 66.7905 68.6336 76.5306 65.7169 83.499C64.2571 86.9867 62.5632 89.7083 60.7643 91.5327C58.9703 93.3522 57.1653 94.1935 55.4202 94.1858C53.6751 94.178 51.8777 93.3208 50.0998 91.4855C48.3171 89.6453 46.6474 86.9087 45.2185 83.4083C42.3636 76.4144 40.5868 66.6581 40.6347 55.8131C40.6827 44.9681 42.5458 35.2279 45.4625 28.2595C46.9224 24.7719 48.6162 22.0502 50.4151 20.2258C52.2092 18.4063 54.0142 17.5651 55.7592 17.5728C57.5043 17.5805 59.3018 18.4377 61.0796 20.273C62.8623 22.1133 64.532 24.8498 65.9609 28.3502C68.8159 35.3442 70.5927 45.1004 70.5447 55.9455Z" stroke="#399CFF" stroke-width="3"/>
<path d="M64.3402 43.3419C73.5684 49.0391 80.9072 55.7086 85.3315 61.8317C87.5459 64.8962 88.9846 67.7609 89.603 70.2473C90.2198 72.727 89.9961 74.7058 89.0794 76.1907C88.1627 77.6755 86.4939 78.7621 84.0007 79.3218C81.5008 79.8831 78.2951 79.8805 74.5632 79.274C67.1068 78.0622 57.8559 74.4898 48.6277 68.7926C39.3996 63.0955 32.0608 56.4259 27.6364 50.3029C25.422 47.2383 23.9833 44.3736 23.3649 41.8872C22.7482 39.4076 22.9718 37.4287 23.8885 35.9439C24.8052 34.459 26.4741 33.3724 28.9673 32.8127C31.4672 32.2514 34.6729 32.254 38.4047 32.8605C45.8611 34.0723 55.1121 37.6447 64.3402 43.3419Z" stroke="#399CFF" stroke-width="3"/>
<path d="M47.5444 40.8731C56.7391 35.1221 65.969 31.4957 73.4182 30.2403C77.1464 29.612 80.3521 29.5907 82.8552 30.1373C85.3516 30.6824 87.0268 31.7592 87.9522 33.2387C88.8776 34.7182 89.1128 36.6957 88.5105 39.179C87.9067 41.6689 86.4847 44.542 84.2883 47.6194C79.8998 53.7682 72.6001 60.4805 63.4054 66.2316C54.2107 71.9826 44.9808 75.609 37.5317 76.8643C33.8034 77.4926 30.5978 77.514 28.0946 76.9674C25.5982 76.4222 23.923 75.3454 22.9977 73.8659C22.0723 72.3864 21.8371 70.4089 22.4393 67.9257C23.0432 65.4357 24.4651 62.5627 26.6615 59.4853C31.05 53.3365 38.3497 46.6241 47.5444 40.8731Z" stroke="#399CFF" stroke-width="3"/>
<path d="M63.1279 55.8455C63.1279 60.0288 59.7367 63.42 55.5534 63.42C51.3701 63.42 47.9789 60.0288 47.9789 55.8455C47.9789 51.6622 51.3701 48.271 55.5534 48.271C59.7367 48.271 63.1279 51.6622 63.1279 55.8455Z" stroke="#399CFF" stroke-width="3"/>
</svg>
